<svg width="34" height="31" viewBox="0 0 34 31" fill="none" xmlns="http://www.w3.org/2000/svg">
<g filter="url(#filter0_d_3_16374)">
<path d="M25.3019 0.0320516C24.9605 0.109144 24.6081 0.296369 24.3328 0.549674C23.9693 0.902098 18.9142 8.65542 18.9583 8.80961C19.0134 9.02987 19.52 9.73472 19.8504 10.0431C20.39 10.5387 21.183 10.8581 21.9649 10.9021L22.2843 10.9131L24.8394 7.00343C26.2491 4.85585 27.4605 2.96157 27.5376 2.80739C27.6588 2.55408 27.6698 2.45496 27.6698 1.99241C27.6698 1.50783 27.6588 1.44175 27.5046 1.12236C27.2953 0.703859 26.9649 0.384475 26.5244 0.186237C26.161 0.0210383 25.6543 -0.0450411 25.3019 0.0320516Z" fill="#0FB700"/>
<path d="M9.67392 2.8513C9.66291 2.90636 9.59683 3.15967 9.54176 3.40196C9.16731 5.00989 8.36335 5.89095 6.86555 6.36452C6.51312 6.47465 6.28184 6.57377 6.29286 6.60681C6.30387 6.63985 6.54616 6.73897 6.83251 6.82708C8.39639 7.32267 9.13427 8.13765 9.54176 9.83369C9.62987 10.1861 9.71798 10.4614 9.74 10.4394C9.76203 10.4174 9.83912 10.1421 9.91621 9.83369C10.1475 8.8425 10.4889 8.18171 11.0286 7.69712C11.4581 7.31166 11.8656 7.08038 12.5484 6.86012C12.8898 6.74999 13.1761 6.63985 13.1871 6.60681C13.1982 6.57377 12.9669 6.48567 12.6585 6.38655C11.8545 6.14426 11.4581 5.91298 10.9625 5.41738C10.4228 4.87773 10.1695 4.39315 9.93824 3.435C9.78406 2.78522 9.72899 2.66407 9.67392 2.8513Z" fill="#0FB700"/>
<path d="M16.5678 9.97706C13.0986 11.3317 9.37614 12.8075 9.11182 12.9286C8.95764 13.0057 8.78143 13.1268 8.72636 13.2039C8.58319 13.4022 8.55015 13.7987 8.66028 14.1621C8.83649 14.7568 9.40918 15.759 9.57438 15.759C9.72857 15.759 11.1383 15.2965 11.744 15.0431C12.0524 14.911 12.559 14.6577 12.8563 14.4815C13.1647 14.2942 13.407 14.1621 13.407 14.1731C13.407 14.1841 13.2418 14.4705 13.0325 14.8119C12.614 15.5057 11.9422 16.8273 11.6779 17.4881L11.5017 17.9396L11.788 18.1929C12.0854 18.4573 13.429 19.4925 13.6052 19.5916C13.6933 19.6357 13.7704 19.5916 14.1228 19.3163C14.3431 19.1291 14.7286 18.7766 14.9709 18.5343C15.2021 18.2921 15.4004 18.0938 15.4004 18.1048C15.4004 18.1158 15.3343 18.3691 15.2462 18.6665C14.9929 19.5366 14.8167 20.3405 14.8607 20.3846C14.9599 20.4837 16.2814 21.1665 16.8651 21.4308L17.5039 21.7062L17.8013 21.3758C18.2969 20.8251 18.7594 20.2634 19.1008 19.7788C19.6405 19.0189 19.6074 19.0299 19.5193 19.5696C19.4422 20.0321 19.4533 21.541 19.5304 22.1137L19.5634 22.3559L19.9929 22.422C20.5876 22.5211 21.3475 22.5101 21.7 22.4C22.0083 22.3119 22.2396 22.1247 22.3277 21.8824C22.3828 21.7392 22.3277 19.9661 22.0964 14.3053L21.9973 12.1467L21.5568 12.0916C20.5105 11.9484 19.6845 11.563 18.9797 10.8801C18.7154 10.6379 18.396 10.2634 18.2528 10.0321C18.1096 9.81186 17.9665 9.59159 17.9224 9.54754C17.8563 9.49247 17.7462 9.5145 16.5678 9.97706Z" fill="#0FB700"/>
<path d="M26.8321 13.8647C26.6449 14.6246 26.4136 15.0982 26.0281 15.5167C25.6316 15.9462 25.1801 16.1995 24.5303 16.4088C24.244 16.4969 24.0127 16.596 24.0127 16.618C24.0127 16.6401 24.1118 16.6951 24.233 16.7282C24.9929 16.9374 25.4334 17.1577 25.896 17.5982C26.3475 18.0277 26.6228 18.5343 26.8211 19.3603C26.8982 19.6797 26.9753 19.922 26.9973 19.922C27.0083 19.922 27.0854 19.6907 27.1515 19.4044C27.3167 18.6665 27.6361 18.0387 28.0435 17.6202C28.396 17.2678 28.9687 16.9374 29.4863 16.7943C29.6625 16.7392 29.8387 16.6951 29.8938 16.6841C30.07 16.6291 29.9709 16.563 29.4753 16.4088C28.1867 16.0123 27.4598 15.2083 27.1515 13.8207C27.0854 13.5453 27.0193 13.3141 26.9973 13.3141C26.9973 13.3031 26.9092 13.5564 26.8321 13.8647Z" fill="#0FB700"/>
<path d="M6.18285 17.6642C5.85246 18.9527 5.3899 19.5254 4.43175 19.8228C4.2225 19.8888 4.02426 19.9549 4.00223 19.9769C3.98021 19.999 4.12338 20.0651 4.33263 20.1311C5.02646 20.3514 5.56611 20.7589 5.84144 21.2875C5.95158 21.5078 6.11678 22.0144 6.20488 22.4109C6.23792 22.543 6.25995 22.499 6.38109 22.0474C6.54629 21.4417 6.67845 21.1554 6.94277 20.858C7.22911 20.5496 7.55951 20.3294 8.01105 20.1862C8.23132 20.1091 8.41854 20.032 8.41854 19.999C8.41854 19.9659 8.27537 19.8999 8.09916 19.8338C7.60356 19.6686 7.33925 19.5034 7.04189 19.217C6.71149 18.8976 6.51325 18.5012 6.35907 17.8844L6.24893 17.4219L6.18285 17.6642Z" fill="#0FB700"/>
</g>
<defs>
<filter id="filter0_d_3_16374" x="0" y="0" width="33.9746" height="30.49" filterUnits="userSpaceOnUse" color-interpolation-filters="sRGB">
<feFlood flood-opacity="0" result="BackgroundImageFix"/>
<feColorMatrix in="SourceAlpha" type="matrix" values="0 0 0 0 0 0 0 0 0 0 0 0 0 0 0 0 0 0 127 0" result="hardAlpha"/>
<feOffset dy="4"/>
<feGaussianBlur stdDeviation="2"/>
<feComposite in2="hardAlpha" operator="out"/>
<feColorMatrix type="matrix" values="0 0 0 0 0 0 0 0 0 0 0 0 0 0 0 0 0 0 0.25 0"/>
<feBlend mode="normal" in2="BackgroundImageFix" result="effect1_dropShadow_3_16374"/>
<feBlend mode="normal" in="SourceGraphic" in2="effect1_dropShadow_3_16374" result="shape"/>
</filter>
</defs>
</svg>
