<svg width="89" height="89" viewBox="0 0 89 89" fill="none" xmlns="http://www.w3.org/2000/svg">
<path d="M54.4173 29.1069V21.3738C54.4173 19.3229 53.5957 17.356 52.1333 15.9057C50.6709 14.4555 48.6874 13.6407 46.6192 13.6407H19.3259C17.2577 13.6407 15.2743 14.4555 13.8118 15.9057C12.3494 17.356 11.5278 19.3229 11.5278 21.3738V67.7724C11.5278 69.8234 12.3494 71.7903 13.8118 73.2406C15.2743 74.6908 17.2577 75.5055 19.3259 75.5055H46.6192C48.6874 75.5055 50.6709 74.6908 52.1333 73.2406C53.5957 71.7903 54.4173 69.8234 54.4173 67.7724V60.0393M31.023 44.5731H77.8115M77.8115 44.5731L66.1144 32.9735M77.8115 44.5731L66.1144 56.1728" stroke="white" stroke-width="7.36486" stroke-linecap="round" stroke-linejoin="round"/>
</svg>
