<svg width="103" height="86" viewBox="0 0 103 86" fill="none" xmlns="http://www.w3.org/2000/svg">
<path d="M83.7098 0.12263C82.3682 0.417276 80.9833 1.13284 79.9013 2.10097C78.4731 3.44792 58.6083 33.0809 58.7814 33.6702C58.9978 34.512 60.9886 37.2059 62.287 38.3845C64.4076 40.2787 67.5237 41.4993 70.5964 41.6677L71.8515 41.7098L81.8921 26.767C87.4318 18.559 92.1924 11.3192 92.4953 10.7299C92.9714 9.76176 93.0147 9.38293 93.0147 7.61506C93.0147 5.763 92.9714 5.51044 92.3655 4.28977C91.5432 2.69026 90.2449 1.46958 88.5137 0.711922C87.0855 0.0805376 85.0947 -0.172016 83.7098 0.12263Z" fill="white"/>
<path d="M22.2987 10.8979C22.2554 11.1084 21.9958 12.0765 21.7794 13.0025C20.3079 19.148 17.1486 22.5154 11.2627 24.3253C9.87779 24.7463 8.96894 25.1251 9.01222 25.2514C9.0555 25.3776 10.0076 25.7565 11.1329 26.0932C17.2784 27.9874 20.1781 31.1022 21.7794 37.5844C22.1256 38.9314 22.4718 39.9837 22.5584 39.8995C22.6449 39.8153 22.9479 38.763 23.2508 37.5844C24.1597 33.7961 25.5013 31.2706 27.622 29.4185C29.3098 27.9453 30.9111 27.0613 33.5944 26.2195C34.936 25.7986 36.0613 25.3776 36.1046 25.2514C36.1478 25.1251 35.239 24.7884 34.0272 24.4095C30.8679 23.4835 29.3098 22.5996 27.3623 20.7054C25.2417 18.6429 24.2463 16.7908 23.3374 13.1288C22.7315 10.6453 22.5151 10.1823 22.2987 10.8979Z" fill="white"/>
<path d="M49.3872 38.1328C35.7545 43.3102 21.1264 48.9505 20.0877 49.4135C19.4818 49.7082 18.7893 50.1712 18.5729 50.4658C18.0103 51.2235 17.8805 52.7388 18.3133 54.1279C19.0057 56.4009 21.2562 60.2313 21.9054 60.2313C22.5113 60.2313 28.0509 58.4634 30.4313 57.4953C31.643 56.9901 33.6339 56.022 34.8024 55.3486C36.0142 54.633 36.9663 54.1279 36.9663 54.17C36.9663 54.2121 36.3171 55.3065 35.4948 56.6113C33.8503 59.2631 31.2103 64.3142 30.1716 66.8397L29.4791 68.5655L30.6044 69.5336C31.7729 70.5439 37.0529 74.5005 37.7453 74.8794C38.0915 75.0477 38.3945 74.8794 39.7794 73.8271C40.645 73.1115 42.1597 71.7645 43.1118 70.8385C44.0207 69.9125 44.7997 69.1548 44.7997 69.1969C44.7997 69.239 44.54 70.2071 44.1938 71.3436C43.1984 74.6689 42.5059 77.7416 42.6791 77.91C43.0686 78.2888 48.262 80.8986 50.5557 81.9088L53.0659 82.9611L54.2344 81.6983C56.1819 79.5937 57.9996 77.447 59.3413 75.5949C61.4619 72.6906 61.3321 72.7327 60.9859 74.7952C60.6829 76.5631 60.7262 82.3297 61.0291 84.5185L61.159 85.4445L62.8468 85.6971C65.1839 86.0759 68.1701 86.0338 69.555 85.6129C70.7668 85.2762 71.6756 84.5606 72.0219 83.6346C72.2383 83.0874 72.0219 76.3105 71.113 54.6751L70.7235 46.425L68.9924 46.2145C64.8809 45.6673 61.635 44.1941 58.8652 41.5844C57.8265 40.6583 56.5714 39.2272 56.0088 38.3433C55.4462 37.5014 54.8836 36.6596 54.7105 36.4912C54.4508 36.2807 54.018 36.3649 49.3872 38.1328Z" fill="white"/>
<path d="M89.7228 52.9908C88.9871 55.8952 88.0783 57.7051 86.5635 59.3047C85.0055 60.9462 83.2311 61.9144 80.6776 62.7141C79.5524 63.0509 78.6436 63.4297 78.6436 63.5139C78.6436 63.5981 79.0331 63.8085 79.5091 63.9348C82.4953 64.7346 84.2265 65.5764 86.0442 67.2601C87.8186 68.9017 88.9006 70.8379 89.6796 73.9949C89.9825 75.2155 90.2855 76.1416 90.372 76.1416C90.4153 76.1416 90.7183 75.2576 90.9779 74.1632C91.6271 71.343 92.8822 68.9438 94.4835 67.3443C95.8684 65.9973 98.1189 64.7346 100.153 64.1874C100.845 63.9769 101.538 63.8085 101.754 63.7664C102.447 63.556 102.057 63.3034 100.11 62.7141C95.0461 61.1988 92.1897 58.1261 90.9779 52.8224C90.7183 51.7701 90.4586 50.8862 90.372 50.8862C90.372 50.8441 90.0258 51.8122 89.7228 52.9908Z" fill="white"/>
<path d="M8.57791 67.5117C7.27956 72.4365 5.46186 74.6253 1.69664 75.7618C0.874344 76.0144 0.0953317 76.2669 0.00877471 76.3511C-0.0777823 76.4353 0.484838 76.6878 1.30713 76.9404C4.03367 77.7822 6.15432 79.3397 7.23628 81.3601C7.66907 82.2019 8.31824 84.1382 8.66447 85.6535C8.79431 86.1586 8.88086 85.9902 9.35693 84.2644C10.0061 81.9494 10.5254 80.855 11.5641 79.7185C12.6894 78.5399 13.9877 77.6981 15.7621 77.1509C16.6277 76.8562 17.3634 76.5616 17.3634 76.4353C17.3634 76.309 16.8008 76.0564 16.1084 75.8039C14.1608 75.1725 13.1222 74.5411 11.9536 73.4467C10.6553 72.2261 9.87627 70.7107 9.27037 68.3536L8.83759 66.5857L8.57791 67.5117Z" fill="white"/>
</svg>
