<svg width="37" height="36" viewBox="0 0 37 36" fill="none" xmlns="http://www.w3.org/2000/svg">
<g clip-path="url(#clip0_3_6101)">
<path d="M28.625 4.5H26.375V3.375C26.375 3.07663 26.2565 2.79048 26.0455 2.5795C25.8345 2.36853 25.5484 2.25 25.25 2.25C24.9516 2.25 24.6655 2.36853 24.4545 2.5795C24.2435 2.79048 24.125 3.07663 24.125 3.375V4.5H19.625V3.375C19.625 3.07663 19.5065 2.79048 19.2955 2.5795C19.0845 2.36853 18.7984 2.25 18.5 2.25C18.2016 2.25 17.9155 2.36853 17.7045 2.5795C17.4935 2.79048 17.375 3.07663 17.375 3.375V4.5H12.875V3.375C12.875 3.07663 12.7565 2.79048 12.5455 2.5795C12.3345 2.36853 12.0484 2.25 11.75 2.25C11.4516 2.25 11.1655 2.36853 10.9545 2.5795C10.7435 2.79048 10.625 3.07663 10.625 3.375V4.5H8.375C7.77826 4.5 7.20597 4.73705 6.78401 5.15901C6.36205 5.58097 6.125 6.15326 6.125 6.75V28.125C6.125 29.3185 6.59911 30.4631 7.44302 31.307C8.28693 32.1509 9.43153 32.625 10.625 32.625H26.375C27.5685 32.625 28.7131 32.1509 29.557 31.307C30.4009 30.4631 30.875 29.3185 30.875 28.125V6.75C30.875 6.15326 30.6379 5.58097 30.216 5.15901C29.794 4.73705 29.2217 4.5 28.625 4.5ZM23 23.625H14C13.7016 23.625 13.4155 23.5065 13.2045 23.2955C12.9935 23.0845 12.875 22.7984 12.875 22.5C12.875 22.2016 12.9935 21.9155 13.2045 21.7045C13.4155 21.4935 13.7016 21.375 14 21.375H23C23.2984 21.375 23.5845 21.4935 23.7955 21.7045C24.0065 21.9155 24.125 22.2016 24.125 22.5C24.125 22.7984 24.0065 23.0845 23.7955 23.2955C23.5845 23.5065 23.2984 23.625 23 23.625ZM23 19.125H14C13.7016 19.125 13.4155 19.0065 13.2045 18.7955C12.9935 18.5845 12.875 18.2984 12.875 18C12.875 17.7016 12.9935 17.4155 13.2045 17.2045C13.4155 16.9935 13.7016 16.875 14 16.875H23C23.2984 16.875 23.5845 16.9935 23.7955 17.2045C24.0065 17.4155 24.125 17.7016 24.125 18C24.125 18.2984 24.0065 18.5845 23.7955 18.7955C23.5845 19.0065 23.2984 19.125 23 19.125Z" fill="#8F95A1"/>
</g>
<defs>
<clipPath id="clip0_3_6101">
<rect width="36" height="36" fill="white" transform="translate(0.5)"/>
</clipPath>
</defs>
</svg>
