<svg width="44" height="34" viewBox="0 0 44 34" fill="none" xmlns="http://www.w3.org/2000/svg">
<path fill-rule="evenodd" clip-rule="evenodd" d="M5.41003 23.0777H2.04583C1.81561 23.0777 1.61981 23.2253 1.58391 23.4257L0.223256 31.0363C0.196211 31.1866 0.328042 31.3219 0.500711 31.3219H2.10681C2.33703 31.3219 2.53283 31.1743 2.56873 30.9735L2.93571 28.9208C2.97111 28.7198 3.16739 28.5724 3.39713 28.5724H4.46212C6.67824 28.5724 7.95715 27.6263 8.29133 25.7515C8.44181 24.9313 8.29771 24.2869 7.86222 23.8354C7.38417 23.34 6.53596 23.0777 5.41003 23.0777ZM5.79817 25.8574C5.61423 26.9224 4.69186 26.9224 3.80001 26.9224H3.29234L3.64849 24.9334C3.66964 24.8133 3.7877 24.7247 3.92544 24.7247H4.15812C4.76564 24.7247 5.33878 24.7247 5.63495 25.0302C5.81137 25.2125 5.86555 25.4832 5.79817 25.8574ZM15.4665 25.8232H13.8554C13.7182 25.8232 13.5996 25.9118 13.5784 26.0321L13.5071 26.4295L13.3945 26.2855C13.0457 25.8389 12.2681 25.6897 11.4918 25.6897C9.71138 25.6897 8.19094 26.8792 7.89478 28.5479C7.74089 29.3801 7.95966 30.176 8.49485 30.7311C8.98588 31.2414 9.68839 31.4541 10.5241 31.4541C11.9585 31.4541 12.7541 30.6403 12.7541 30.6403L12.6821 31.0353C12.6551 31.1864 12.7869 31.3217 12.9585 31.3217H14.4097C14.6406 31.3217 14.8352 31.1741 14.8716 30.9733L15.7424 26.1088C15.7699 25.9592 15.6386 25.8232 15.4665 25.8232ZM13.2208 28.5894C13.0653 29.4014 12.3348 29.9464 11.4032 29.9464C10.9354 29.9464 10.5614 29.8141 10.3215 29.5633C10.0834 29.3142 9.99275 28.9596 10.0686 28.5647C10.2138 27.7596 10.9566 27.1969 11.874 27.1969C12.3313 27.1969 12.7033 27.3308 12.9483 27.5839C13.1937 27.8395 13.2911 28.1962 13.2208 28.5894ZM22.4276 25.823H24.0466C24.2734 25.823 24.4056 26.0474 24.2768 26.2114L18.8923 33.0681C18.8051 33.1792 18.6615 33.2453 18.508 33.2453H16.8911C16.6634 33.2453 16.5305 33.0191 16.6623 32.8546L18.3389 30.7668L16.5558 26.1502C16.4941 25.9897 16.6284 25.823 16.8219 25.823H18.4127C18.6194 25.823 18.8017 25.9427 18.8613 26.1172L19.8077 28.9055L22.0406 26.004C22.128 25.8907 22.2733 25.823 22.4276 25.823Z" fill="#253B80"/>
<path fill-rule="evenodd" clip-rule="evenodd" d="M39.9806 31.0363L41.3613 23.2865C41.3825 23.1662 41.5006 23.0777 41.6379 23.0773H43.1922C43.3639 23.0773 43.4957 23.213 43.4686 23.3633L42.107 30.9735C42.0715 31.1743 41.8758 31.3219 41.6452 31.3219H40.257C40.0853 31.3219 39.9535 31.1865 39.9806 31.0363ZM29.4067 23.0777H26.0419C25.8122 23.0777 25.6164 23.2253 25.5805 23.4257L24.2198 31.0363C24.1928 31.1865 24.3246 31.3219 24.4964 31.3219H26.2229C26.3834 31.3219 26.5207 31.2187 26.5457 31.0781L26.9318 28.9208C26.9673 28.7198 27.1635 28.5723 27.3932 28.5723H28.4577C30.6743 28.5723 31.9529 27.6262 32.2874 25.7515C32.4383 24.9313 32.2933 24.2869 31.858 23.8354C31.3802 23.34 30.5327 23.0777 29.4067 23.0777ZM29.7949 25.8573C29.6114 26.9223 28.689 26.9223 27.7966 26.9223H27.2894L27.6461 24.9333C27.6673 24.8132 27.7843 24.7247 27.9225 24.7247H28.1551C28.7623 24.7247 29.3359 24.7247 29.6319 25.0301C29.8085 25.2125 29.8623 25.4832 29.7949 25.8573ZM39.4623 25.8232H37.8524C37.714 25.8232 37.5965 25.9118 37.5758 26.0321L37.5045 26.4295L37.3914 26.2855C37.0426 25.8389 36.2655 25.6897 35.4892 25.6897C33.7088 25.6897 32.1888 26.8792 31.8926 28.5478C31.7392 29.3801 31.957 30.176 32.4922 30.7311C32.9842 31.2414 33.6858 31.454 34.5215 31.454C35.9559 31.454 36.7512 30.6403 36.7512 30.6403L36.6795 31.0353C36.6524 31.1863 36.7843 31.3217 36.957 31.3217H38.4076C38.6373 31.3217 38.8331 31.1741 38.869 30.9733L39.7402 26.1088C39.7669 25.9592 39.6351 25.8232 39.4623 25.8232ZM37.2168 28.5894C37.0622 29.4014 36.3308 29.9464 35.399 29.9464C34.9321 29.9464 34.5574 29.8141 34.3173 29.5632C34.0791 29.3142 33.9897 28.9595 34.0646 28.5647C34.2105 27.7596 34.9524 27.1969 35.8698 27.1969C36.3274 27.1969 36.6991 27.3308 36.9443 27.5839C37.1906 27.8395 37.288 28.1962 37.2168 28.5894Z" fill="#179BD7"/>
<path d="M17.8605 20.355L18.2741 18.0375L17.3528 18.0186H12.9536L16.0109 0.916784C16.0202 0.865151 16.0512 0.817013 16.0963 0.782832C16.1413 0.748651 16.1991 0.729813 16.2592 0.729813H23.6771C26.1397 0.729813 27.8391 1.1819 28.7264 2.0742C29.1423 2.49281 29.4073 2.93023 29.5355 3.41162C29.6698 3.91674 29.6723 4.52021 29.541 5.25625L29.5314 5.30997V5.78158L29.9475 5.9895C30.2979 6.15343 30.5761 6.34111 30.7896 6.55599C31.1456 6.91389 31.3758 7.36877 31.473 7.90805C31.5734 8.4627 31.5401 9.12269 31.3758 9.86989C31.1859 10.7294 30.8791 11.478 30.4647 12.0906C30.0834 12.655 29.5979 13.123 29.0215 13.4859C28.471 13.8305 27.817 14.0922 27.0776 14.2597C26.361 14.4242 25.5442 14.5073 24.6482 14.5073H24.0709C23.6582 14.5073 23.257 14.6384 22.9424 14.8736C22.6269 15.1136 22.4179 15.4414 22.354 15.8L22.3105 16.0087L21.5798 20.0934L21.5465 20.2434C21.5379 20.291 21.5228 20.3147 21.5008 20.3307C21.481 20.3452 21.4525 20.355 21.4247 20.355H17.8605Z" fill="#253B80"/>
<path d="M30.3413 5.36464C30.3192 5.48951 30.2939 5.61718 30.2655 5.74834C29.287 10.1792 25.9404 11.7099 21.666 11.7099H19.4897C18.967 11.7099 18.5265 12.0447 18.445 12.4996L17.3307 18.734L17.0152 20.5011C16.9621 20.7997 17.2232 21.069 17.5647 21.069H21.4249C21.882 21.069 22.2701 20.776 22.3421 20.3784L22.3801 20.2053L23.1069 16.1365L23.1536 15.9134C23.2246 15.5143 23.6137 15.2213 24.0708 15.2213H24.6481C28.3878 15.2213 31.3156 13.8818 32.1713 10.0055C32.5287 8.38621 32.3436 7.03415 31.3978 6.08322C31.1116 5.79648 30.7565 5.55858 30.3413 5.36464Z" fill="#179BD7"/>
<path d="M29.3176 5.00495C29.1683 4.96657 29.0139 4.93169 28.8557 4.9003C28.6968 4.86961 28.5338 4.8424 28.3663 4.81868C27.7794 4.73495 27.1365 4.69519 26.4477 4.69519H20.6336C20.4904 4.69519 20.3545 4.72379 20.2327 4.77542C19.9646 4.88913 19.7654 5.1131 19.7171 5.38727L18.4801 12.2983L18.4446 12.4999C18.5261 12.0451 18.9666 11.7102 19.4892 11.7102H21.6655C25.94 11.7102 29.2869 10.1788 30.265 5.74866C30.2942 5.6175 30.3188 5.48983 30.3408 5.36495C30.0934 5.24914 29.8252 5.15007 29.5366 5.06564C29.4656 5.04471 29.392 5.02449 29.3176 5.00495Z" fill="#222D65"/>
<path d="M19.7169 5.38708C19.7651 5.11289 19.9645 4.88895 20.2325 4.77592C20.3552 4.72429 20.4904 4.69569 20.6334 4.69569H26.4476C27.1365 4.69569 27.7794 4.73545 28.366 4.81918C28.5338 4.8429 28.6968 4.87011 28.8557 4.9008C29.0139 4.93221 29.168 4.96709 29.3175 5.00545C29.3918 5.02499 29.4653 5.04521 29.5372 5.06546C29.8259 5.14986 30.094 5.24964 30.3415 5.36475C30.6327 3.72733 30.3392 2.61247 29.3358 1.60295C28.2294 0.491581 26.2325 0.0157776 23.6774 0.0157776H16.2594C15.7374 0.0157776 15.2924 0.350639 15.2115 0.806219L12.1219 18.0838C12.0609 18.4256 12.3598 18.7341 12.7505 18.7341H17.3302L18.4801 12.2981L19.7169 5.38708Z" fill="#253B80"/>
</svg>
