<svg width="27" height="23" viewBox="0 0 27 23" fill="none" xmlns="http://www.w3.org/2000/svg">
<path d="M22.2375 0.287056C21.8961 0.364149 21.5436 0.551374 21.2683 0.804679C20.9049 1.1571 15.8498 8.91043 15.8938 9.06461C15.9489 9.28487 16.4555 9.98972 16.7859 10.2981C17.3256 10.7937 18.1185 11.1131 18.9005 11.1571L19.2198 11.1681L21.7749 7.25844C23.1846 5.11086 24.3961 3.21658 24.4732 3.06239C24.5943 2.80909 24.6053 2.70997 24.6053 2.24741C24.6053 1.76283 24.5943 1.69675 24.4401 1.37737C24.2309 0.958864 23.9005 0.63948 23.4599 0.441242C23.0965 0.276043 22.5899 0.209964 22.2375 0.287056Z" fill="#727272"/>
<path d="M6.60947 3.10629C6.59846 3.16135 6.53238 3.41466 6.47731 3.65695C6.10286 5.26488 5.29889 6.14594 3.80109 6.61951C3.44867 6.72964 3.21739 6.82876 3.2284 6.8618C3.23942 6.89484 3.48171 6.99396 3.76805 7.08207C5.33193 7.57766 6.06982 8.39264 6.47731 10.0887C6.56542 10.4411 6.65352 10.7164 6.67555 10.6944C6.69758 10.6724 6.77467 10.3971 6.85176 10.0887C7.08304 9.09749 7.42445 8.4367 7.9641 7.95211C8.39362 7.56665 8.8011 7.33537 9.48393 7.11511C9.82534 7.00497 10.1117 6.89484 10.1227 6.8618C10.1337 6.82876 9.90243 6.74066 9.59406 6.64154C8.79009 6.39925 8.39361 6.16797 7.89802 5.67237C7.35837 5.13272 7.10507 4.64814 6.87379 3.68999C6.7196 3.04021 6.66454 2.91906 6.60947 3.10629Z" fill="#727272"/>
<path d="M13.5033 10.2321C10.0342 11.5867 6.31169 13.0625 6.04737 13.1836C5.89319 13.2607 5.71697 13.3819 5.66191 13.459C5.51874 13.6572 5.4857 14.0537 5.59583 14.4171C5.77204 15.0118 6.34473 16.014 6.50993 16.014C6.66411 16.014 8.07381 15.5515 8.67954 15.2982C8.98791 15.166 9.49452 14.9127 9.79187 14.7365C10.1002 14.5493 10.3425 14.4171 10.3425 14.4281C10.3425 14.4391 10.1773 14.7255 9.96809 15.0669C9.54958 15.7607 8.87777 17.0823 8.61346 17.7431L8.43724 18.1947L8.72359 18.448C9.02095 18.7123 10.3646 19.7475 10.5408 19.8466C10.6289 19.8907 10.706 19.8466 11.0584 19.5713C11.2787 19.3841 11.6641 19.0317 11.9064 18.7894C12.1377 18.5471 12.3359 18.3488 12.3359 18.3598C12.3359 18.3709 12.2699 18.6242 12.1817 18.9215C11.9284 19.7916 11.7522 20.5955 11.7963 20.6396C11.8954 20.7387 13.217 21.4215 13.8007 21.6858L14.4395 21.9612L14.7368 21.6308C15.2324 21.0801 15.695 20.5184 16.0364 20.0339C16.576 19.2739 16.543 19.285 16.4549 19.8246C16.3778 20.2872 16.3888 21.796 16.4659 22.3687L16.4989 22.611L16.9285 22.677C17.5232 22.7762 18.2831 22.7651 18.6355 22.655C18.9439 22.5669 19.1752 22.3797 19.2633 22.1374C19.3183 21.9942 19.2633 20.2211 19.032 14.5603L18.9329 12.4017L18.4923 12.3466C17.4461 12.2034 16.6201 11.818 15.9152 11.1352C15.6509 10.8929 15.3315 10.5184 15.1884 10.2871C15.0452 10.0669 14.902 9.84661 14.858 9.80256C14.7919 9.74749 14.6818 9.76952 13.5033 10.2321Z" fill="#727272"/>
<path d="M23.7676 14.1197C23.5804 14.8796 23.3491 15.3532 22.9637 15.7717C22.5672 16.2012 22.1156 16.4545 21.4659 16.6638C21.1795 16.7519 20.9482 16.851 20.9482 16.873C20.9482 16.8951 21.0474 16.9501 21.1685 16.9832C21.9284 17.1924 22.369 17.4127 22.8315 17.8532C23.2831 18.2827 23.5584 18.7893 23.7566 19.6153C23.8337 19.9347 23.9108 20.177 23.9328 20.177C23.9438 20.177 24.0209 19.9457 24.087 19.6594C24.2522 18.9215 24.5716 18.2938 24.9791 17.8752C25.3315 17.5228 25.9042 17.1924 26.4218 17.0493C26.598 16.9942 26.7742 16.9501 26.8293 16.9391C27.0055 16.8841 26.9064 16.818 26.4108 16.6638C25.1223 16.2673 24.3954 15.4633 24.087 14.0757C24.0209 13.8004 23.9549 13.5691 23.9328 13.5691C23.9328 13.5581 23.8447 13.8114 23.7676 14.1197Z" fill="#727272"/>
<path d="M3.1184 17.9192C2.788 19.2077 2.32545 19.7804 1.3673 20.0778C1.15804 20.1438 0.959806 20.2099 0.93778 20.232C0.915753 20.254 1.05893 20.3201 1.26818 20.3861C1.96201 20.6064 2.50166 21.0139 2.77699 21.5425C2.88712 21.7628 3.05232 22.2694 3.14043 22.6659C3.17347 22.798 3.19549 22.754 3.31664 22.3024C3.48184 21.6967 3.614 21.4104 3.87832 21.113C4.16466 20.8046 4.49506 20.5844 4.9466 20.4412C5.16686 20.3641 5.35409 20.287 5.35409 20.254C5.35409 20.2209 5.21092 20.1549 5.03471 20.0888C4.53911 19.9236 4.27479 19.7584 3.97743 19.472C3.64704 19.1527 3.4488 18.7562 3.29461 18.1394L3.18448 17.6769L3.1184 17.9192Z" fill="#727272"/>
</svg>
