<svg width="25" height="25" viewBox="0 0 25 25" fill="none" xmlns="http://www.w3.org/2000/svg">
<path d="M9.38846 3.3335H5.31438C4.77413 3.3335 4.256 3.54811 3.87398 3.93013C3.49196 4.31215 3.27734 4.83028 3.27734 5.37053V9.44461M9.38846 3.3335H19.5736C20.1139 3.3335 20.632 3.54811 21.014 3.93013C21.3961 4.31215 21.6107 4.83028 21.6107 5.37053V9.44461M9.38846 3.3335V12.5002V21.6668M3.27734 9.44461V19.6298C3.27734 20.17 3.49196 20.6882 3.87398 21.0702C4.256 21.4522 4.77413 21.6668 5.31438 21.6668H9.38846M3.27734 9.44461H21.6107M21.6107 9.44461V19.6298C21.6107 20.17 21.3961 20.6882 21.014 21.0702C20.632 21.4522 20.1139 21.6668 19.5736 21.6668H9.38846M15.2621 3.3335V21.6668M3.27734 15.2812H21.6107" stroke="#01286D" stroke-width="2.03704" stroke-linecap="round" stroke-linejoin="round"/>
<rect x="4.05859" y="4.07715" width="17.3148" height="5.09259" fill="#01286D"/>
</svg>
