<svg width="26" height="23" viewBox="0 0 26 23" fill="none" xmlns="http://www.w3.org/2000/svg">
<g id="Group">
<g id="Group_2">
<g id="Group_3">
<path id="Vector" d="M20.9055 0.845606C20.5737 0.920537 20.2311 1.10251 19.9635 1.34871C19.6103 1.69126 14.697 9.22717 14.7398 9.37703C14.7933 9.59112 15.2857 10.2762 15.6068 10.5759C16.1314 11.0576 16.9021 11.3681 17.6621 11.4109L17.9725 11.4216L20.4559 7.6215C21.8261 5.53414 23.0036 3.69298 23.0785 3.54312C23.1963 3.29692 23.207 3.20058 23.207 2.75099C23.207 2.28 23.1963 2.21577 23.0464 1.90534C22.843 1.49858 22.5219 1.18815 22.0937 0.995468C21.7405 0.834902 21.2481 0.770675 20.9055 0.845606Z" fill="#FF4910"/>
<path id="Vector_2" d="M5.71533 3.58549C5.70463 3.63901 5.6404 3.88522 5.58688 4.12071C5.22293 5.68356 4.44151 6.53991 2.98571 7.0002C2.64317 7.10725 2.41837 7.20359 2.42908 7.2357C2.43978 7.26781 2.67528 7.36415 2.95359 7.44979C4.47362 7.93149 5.19082 8.72361 5.58688 10.3721C5.67252 10.7146 5.75815 10.9822 5.77956 10.9608C5.80097 10.9394 5.8759 10.6718 5.95083 10.3721C6.17562 9.4087 6.50746 8.76643 7.03198 8.29544C7.44945 7.92078 7.84551 7.69599 8.50919 7.4819C8.84102 7.37486 9.11934 7.26781 9.13004 7.2357C9.14075 7.20359 8.91596 7.11795 8.61623 7.02161C7.83481 6.78611 7.44945 6.56132 6.96775 6.07962C6.44323 5.5551 6.19703 5.08411 5.97224 4.15283C5.82238 3.52127 5.76886 3.40352 5.71533 3.58549Z" fill="#FF4910"/>
<path id="Vector_3" d="M12.417 10.5124C9.04508 11.8291 5.42698 13.2635 5.17008 13.3812C5.02022 13.4561 4.84895 13.5739 4.79542 13.6488C4.65627 13.8415 4.62415 14.2269 4.7312 14.5801C4.90247 15.1582 5.4591 16.1323 5.61966 16.1323C5.76953 16.1323 7.13969 15.6827 7.72844 15.4365C8.02816 15.308 8.52056 15.0618 8.80958 14.8905C9.10931 14.7086 9.3448 14.5801 9.3448 14.5908C9.3448 14.6015 9.18424 14.8798 8.98085 15.2117C8.57408 15.8861 7.92111 17.1706 7.66421 17.8128L7.49294 18.2517L7.77125 18.4979C8.06027 18.7548 9.36621 19.7611 9.53748 19.8574C9.62312 19.9002 9.69805 19.8574 10.0406 19.5898C10.2547 19.4078 10.6293 19.0653 10.8648 18.8298C11.0896 18.5943 11.2823 18.4016 11.2823 18.4123C11.2823 18.423 11.2181 18.6692 11.1324 18.9582C10.8862 19.8039 10.715 20.5853 10.7578 20.6281C10.8541 20.7245 12.1387 21.3881 12.706 21.645L13.3268 21.9126L13.6159 21.5915C14.0976 21.0563 14.5472 20.5104 14.879 20.0394C15.4035 19.3008 15.3714 19.3115 15.2858 19.836C15.2108 20.2856 15.2215 21.7521 15.2965 22.3087L15.3286 22.5442L15.746 22.6084C16.3241 22.7048 17.0627 22.6941 17.4052 22.587C17.705 22.5014 17.9297 22.3194 18.0154 22.0839C18.0689 21.9448 18.0154 20.2213 17.7906 14.7193L17.6942 12.6212L17.2661 12.5677C16.2492 12.4285 15.4463 12.0539 14.7612 11.3902C14.5043 11.1547 14.1939 10.7907 14.0547 10.566C13.9156 10.3519 13.7764 10.1378 13.7336 10.095C13.6694 10.0414 13.5623 10.0628 12.417 10.5124Z" fill="#FF4910"/>
<path id="Vector_4" d="M22.3927 14.2904C22.2107 15.029 21.9859 15.4893 21.6113 15.8961C21.2259 16.3136 20.787 16.5598 20.1555 16.7632C19.8771 16.8488 19.6523 16.9451 19.6523 16.9665C19.6523 16.988 19.7487 17.0415 19.8664 17.0736C20.605 17.277 21.0332 17.4911 21.4828 17.9192C21.9217 18.3367 22.1893 18.8291 22.382 19.6319C22.4569 19.9424 22.5318 20.1779 22.5532 20.1779C22.5639 20.1779 22.6389 19.9531 22.7031 19.6748C22.8637 18.9576 23.1741 18.3474 23.5702 17.9406C23.9127 17.5981 24.4693 17.277 24.9724 17.1378C25.1437 17.0843 25.315 17.0415 25.3685 17.0308C25.5398 16.9773 25.4434 16.913 24.9617 16.7632C23.7093 16.3778 23.0028 15.5964 22.7031 14.2476C22.6389 13.98 22.5747 13.7552 22.5532 13.7552C22.5532 13.7445 22.4676 13.9907 22.3927 14.2904Z" fill="#FF4910"/>
<path id="Vector_5" d="M2.32331 17.9835C2.00217 19.236 1.55259 19.7926 0.621303 20.0816C0.417919 20.1458 0.225239 20.2101 0.20383 20.2315C0.182422 20.2529 0.321579 20.3171 0.524963 20.3813C1.19934 20.5954 1.72386 20.9915 1.99147 21.5053C2.09851 21.7194 2.25908 22.2118 2.34471 22.5971C2.37683 22.7256 2.39824 22.6828 2.51599 22.2439C2.67655 21.6552 2.805 21.3768 3.06191 21.0878C3.34023 20.7881 3.66136 20.574 4.10024 20.4349C4.31433 20.3599 4.4963 20.285 4.4963 20.2529C4.4963 20.2208 4.35715 20.1565 4.18587 20.0923C3.70418 19.9317 3.44727 19.7712 3.15825 19.4929C2.83712 19.1824 2.64444 18.7971 2.49458 18.1976L2.38753 17.748L2.32331 17.9835Z" fill="#FF4910"/>
</g>
</g>
</g>
</svg>
