<svg width="29" height="29" viewBox="0 0 29 29" fill="none" xmlns="http://www.w3.org/2000/svg">
<g id=".">
<g id="Vector">
<path d="M3.06154 20.4916V15.5895L3.79798 15.389C10.8046 13.478 18.1952 13.478 25.2018 15.389L25.9383 15.5895V20.4916M3.06154 20.4916C3.06154 20.4916 3.06154 23.7597 1.42749 23.7597L3.06154 20.4916ZM3.06154 20.4916H25.9383H3.06154ZM25.9383 20.4916C25.9383 20.4916 25.9383 23.7597 27.5723 23.7597L25.9383 20.4916ZM5.24028 12.3214C5.24028 10.1547 4.91676 8.00095 4.27944 5.93002L4.15091 5.51282V5.24048H24.8489V5.51282L24.7204 5.93002C24.0833 8.00072 23.7594 10.1549 23.7595 12.3214M14.4999 8.50858H8.50838V12.3214M14.4999 8.50858V12.3214V8.50858ZM14.4999 8.50858H20.4914V12.3214" fill="#8280FF"/>
<path d="M3.06154 20.4916V15.5895L3.79798 15.389C10.8046 13.478 18.1952 13.478 25.2018 15.389L25.9383 15.5895V20.4916M3.06154 20.4916C3.06154 20.4916 3.06154 23.7597 1.42749 23.7597M3.06154 20.4916H25.9383M25.9383 20.4916C25.9383 20.4916 25.9383 23.7597 27.5723 23.7597M5.24028 12.3214C5.24028 10.1547 4.91676 8.00095 4.27944 5.93002L4.15091 5.51282V5.24048H24.8489V5.51282L24.7204 5.93002C24.0833 8.00072 23.7594 10.1549 23.7595 12.3214M14.4999 8.50858H8.50838V12.3214M14.4999 8.50858V12.3214M14.4999 8.50858H20.4914V12.3214" stroke="#131313" stroke-width="0.21"/>
</g>
</g>
</svg>
