<svg width="29" height="29" viewBox="0 0 29 29" fill="none" xmlns="http://www.w3.org/2000/svg">
<g id=".">
<g id="Vector">
<path d="M21.1696 24.2265V23.6707V24.2265ZM21.1696 24.2265C21.1696 26.0683 19.6765 27.5613 17.8348 27.5613H15.0558V27.2834L15.3003 26.8866C16.5942 24.7839 17.2792 22.3634 17.279 19.8946V19.7801H21.1696M21.1696 24.2265C21.1696 26.0683 22.6626 27.5613 24.5044 27.5613H27.2834V27.2834L27.0388 26.8866C25.7449 24.7839 25.0599 22.3634 25.0602 19.8946V19.7801H21.1696M21.1696 19.7801V1.43872V19.7801ZM5.05135 16.4453V13.6663C5.05135 11.5271 7.36719 10.19 9.21985 11.2596C10.0797 11.7561 10.6094 12.6735 10.6094 13.6663V16.4453M3.93975 27.5613V26.4164C3.93952 23.144 3.21675 19.912 1.82331 16.9511L1.71655 16.7232V16.4453H13.9442V16.7232L13.8374 16.9511C12.444 19.912 11.7212 23.144 11.721 26.4164V27.5613H3.93975Z" fill="#7C7CFF"/>
<path d="M21.1696 24.2265V23.6707M21.1696 24.2265C21.1696 26.0683 19.6765 27.5613 17.8348 27.5613H15.0558V27.2834L15.3003 26.8866C16.5942 24.7839 17.2792 22.3634 17.279 19.8946V19.7801H21.1696M21.1696 24.2265C21.1696 26.0683 22.6626 27.5613 24.5044 27.5613H27.2834V27.2834L27.0388 26.8866C25.7449 24.7839 25.0599 22.3634 25.0602 19.8946V19.7801H21.1696M21.1696 19.7801V1.43872M5.05135 16.4453V13.6663C5.05135 11.5271 7.36719 10.19 9.21985 11.2596C10.0797 11.7561 10.6094 12.6735 10.6094 13.6663V16.4453M3.93975 27.5613V26.4164C3.93952 23.144 3.21675 19.912 1.82331 16.9511L1.71655 16.7232V16.4453H13.9442V16.7232L13.8374 16.9511C12.444 19.912 11.7212 23.144 11.721 26.4164V27.5613H3.93975Z" stroke="#7C7CFF" stroke-width="1.21"/>
</g>
</g>
</svg>
