<svg width="53" height="53" viewBox="0 0 53 53" fill="none" xmlns="http://www.w3.org/2000/svg">
<g id="Icon">
<path id="Circle 2" opacity="0.21" fill-rule="evenodd" clip-rule="evenodd" d="M0 26.3818V32.5268C0 43.6779 9.03975 52.7177 20.1908 52.7177H26.3359H32.4809C43.632 52.7177 52.6718 43.6779 52.6718 32.5268V26.3818V20.2367C52.6718 9.08565 43.632 0.0458984 32.4809 0.0458984H26.3359H20.1908C9.03975 0.0458984 0 9.08565 0 20.2367V26.3818Z" fill="#E3B204"/>
<g id="Group">
<path id="Vector" d="M31.407 25.4503L31.8979 24.954C31.8979 24.954 32.6524 24.306 33.5127 24.5998C35.0105 25.1111 36.7409 24.5575 37.941 23.3558C38.2825 23.0144 38.6971 22.3294 38.6971 22.3294C38.7447 22.2644 38.7613 22.1821 38.7417 22.1036L38.6488 21.7214C38.6314 21.6497 38.5853 21.5885 38.5219 21.5507C38.4584 21.5137 38.3821 21.5039 38.3119 21.5243L35.364 22.3445C35.2544 22.3747 35.1374 22.3339 35.0709 22.2426L33.7167 20.377C33.6751 20.3203 33.6577 20.2493 33.6675 20.1806L33.9402 18.1987C33.9546 18.0907 34.0316 18.003 34.1366 17.9736L37.25 17.1073C37.3904 17.068 37.4758 16.9229 37.4411 16.7802L37.3179 16.2794C37.3013 16.2084 37.256 16.148 37.194 16.1103C37.194 16.1103 36.9501 15.9486 36.7726 15.8572C35.0044 14.9441 32.7778 15.2273 31.2951 16.7107C30.2 17.8059 29.771 19.306 29.9719 20.7304C30.1267 21.8256 30.0542 22.408 29.5814 22.908C29.5383 22.9525 29.4024 23.0885 29.1924 23.2947L31.407 25.4503Z" fill="#E3B204"/>
<path id="Vector_2" d="M24.2182 28.1284C20.9138 31.3301 17.3095 34.8136 17.3095 34.8136C17.1863 34.9315 17.1161 35.0938 17.1138 35.2638C17.1116 35.433 17.1788 35.5969 17.2981 35.717L18.842 37.2608C18.9629 37.3809 19.126 37.4474 19.296 37.4452C19.4659 37.4437 19.6275 37.3726 19.7446 37.2503L26.4796 30.4367L24.2182 28.1284Z" fill="#E3B204"/>
<path id="Vector_3" d="M38.2399 35.6648C38.36 35.5448 38.4264 35.3816 38.4242 35.2117C38.4227 35.0417 38.3517 34.8801 38.2293 34.7622L24.9942 21.8821L22.8695 24.0075L35.7927 37.1981C35.9106 37.3212 36.0721 37.3915 36.2421 37.3937C36.4121 37.396 36.5752 37.3288 36.6961 37.2087L38.2399 35.6648Z" fill="#E3B204"/>
<path id="Vector_4" d="M26.2878 15.4241C24.6941 14.8025 22.1171 14.7126 20.6246 16.2044C19.4493 17.3797 17.7303 19.0995 17.7303 19.0995C17.1177 19.7113 17.6865 20.3185 17.234 20.7702C16.7816 21.2226 16.0587 20.7702 15.6517 21.1773L14.1592 22.6705C13.9469 22.882 13.9469 23.2264 14.1592 23.4387L16.2386 25.518C16.4508 25.7303 16.7952 25.7303 17.0074 25.518L18.4999 24.0255C18.9078 23.6184 18.4546 22.8956 18.9078 22.4439C19.5173 21.8336 20.1828 21.9371 20.5672 22.3208L21.3354 23.089L22.1677 23.308L24.2924 21.1833L24.0476 20.3766C23.3701 19.6984 23.2734 18.9136 23.698 18.4891C24.3551 17.832 25.4404 16.8826 26.4571 16.4755C27.1051 16.2165 26.9094 15.5714 26.2878 15.4241ZM23.4056 18.8494C23.4026 18.8517 23.6888 18.4975 23.6941 18.4929L23.4056 18.8494Z" fill="#E3B204"/>
</g>
</g>
</svg>
