<svg width="18" height="17" viewBox="0 0 18 17" fill="none" xmlns="http://www.w3.org/2000/svg">
<g id="Group">
<path id="Vector" d="M12.1919 7.87408L12.5358 7.5265C12.5358 7.5265 13.0642 7.07261 13.6668 7.2784C14.7158 7.63654 15.9278 7.24877 16.7684 6.40712C17.0076 6.16798 17.298 5.68819 17.298 5.68819C17.3313 5.64269 17.343 5.58503 17.3292 5.53001L17.2641 5.26233C17.252 5.21209 17.2197 5.16923 17.1753 5.14278C17.1308 5.11685 17.0774 5.10998 17.0282 5.12426L14.9634 5.69879C14.8867 5.71995 14.8047 5.69137 14.7582 5.62738L13.8096 4.3207C13.7806 4.28102 13.7684 4.23128 13.7752 4.18313L13.9662 2.79499C13.9763 2.71935 14.0303 2.65797 14.1038 2.63735L16.2844 2.03056C16.3828 2.00303 16.4426 1.90146 16.4182 1.80148L16.332 1.45075C16.3204 1.40102 16.2886 1.3587 16.2452 1.33225C16.2452 1.33225 16.0744 1.21904 15.95 1.15505C14.7116 0.515448 13.1521 0.713851 12.1136 1.75283C11.3465 2.5199 11.046 3.57056 11.1868 4.56826C11.2952 5.33533 11.2444 5.74321 10.9133 6.09343C10.8831 6.12464 10.7879 6.21985 10.6408 6.36429L12.1919 7.87408Z" fill="#E3B204"/>
<path id="Vector_2" d="M7.15691 9.75C4.84246 11.9925 2.31797 14.4324 2.31797 14.4324C2.23173 14.5149 2.18254 14.6286 2.18095 14.7477C2.17936 14.8662 2.22645 14.981 2.31004 15.0651L3.39138 16.1464C3.47602 16.2305 3.59029 16.2771 3.70933 16.2755C3.82837 16.2745 3.94156 16.2247 4.02356 16.139L8.74082 11.3668L7.15691 9.75Z" fill="#E3B204"/>
<path id="Vector_3" d="M16.9778 15.0285C17.0619 14.9444 17.1085 14.8302 17.1069 14.7111C17.1059 14.5921 17.0561 14.4789 16.9704 14.3964L7.70041 5.375L6.21228 6.86367L15.2638 16.1025C15.3463 16.1887 15.4595 16.2379 15.5785 16.2395C15.6976 16.2411 15.8119 16.194 15.8965 16.1099L16.9778 15.0285Z" fill="#E3B204"/>
<path id="Vector_4" d="M8.60649 0.851754C7.49025 0.416383 5.68525 0.353409 4.63991 1.39824C3.81674 2.22141 2.6127 3.42599 2.6127 3.42599C2.18367 3.85448 2.58203 4.27983 2.26513 4.5962C1.94826 4.91306 1.44195 4.5962 1.15684 4.88134L0.1115 5.92716C-0.0371668 6.07528 -0.0371668 6.31652 0.1115 6.46518L1.5679 7.92159C1.71657 8.07025 1.9578 8.07025 2.10644 7.92159L3.15178 6.87624C3.43747 6.5911 3.12002 6.08483 3.43747 5.76847C3.86437 5.34102 4.33045 5.41351 4.59972 5.68223L5.13774 6.22026L5.72073 6.37367L7.20886 4.88554L7.03744 4.32053C6.5629 3.84548 6.49518 3.29581 6.79252 2.99851C7.25277 2.53825 8.01297 1.87329 8.72502 1.58815C9.17888 1.40671 9.04186 0.954917 8.60649 0.851754ZM6.58775 3.25084C6.58562 3.25244 6.78612 3.00433 6.78984 3.00115L6.58775 3.25084Z" fill="#E3B204"/>
</g>
</svg>
