<svg width="53" height="53" viewBox="0 0 53 53" fill="none" xmlns="http://www.w3.org/2000/svg">
<g id="Icon">
<path id="Circle 2" opacity="0.21" fill-rule="evenodd" clip-rule="evenodd" d="M0 26.3818V32.5268C0 43.6779 9.03975 52.7177 20.1908 52.7177H26.3359H32.4809C43.632 52.7177 52.6718 43.6779 52.6718 32.5268V26.3818V20.2367C52.6718 9.08565 43.632 0.0458984 32.4809 0.0458984H26.3359H20.1908C9.03975 0.0458984 0 9.08565 0 20.2367V26.3818Z" fill="#8280FF"/>
<g id="Vector 227">
<path d="M20 40H33L32.5778 21C32.5778 21 30.8475 23.5945 28.5 25C26.7898 26.0239 24.0175 25.8036 23 26.5C20.4778 28.2262 20 29.5 20 29.5V40Z" fill="#7C7CFF"/>
<path d="M20 19.4999C20 19.4999 21.901 13 27 13C31.5 13 32.5 17.5 32.5 17.5L32.5778 21M32.5778 21L33 40H20V29.5C20 29.5 20.4778 28.2262 23 26.5C24.0175 25.8036 26.7898 26.0239 28.5 25C30.8475 23.5945 32.5778 21 32.5778 21ZM23 37H29.5" stroke="black" stroke-width="0.3"/>
</g>
</g>
</svg>
